<mxfile host="app.diagrams.net" modified="2024-07-11T20:35:00.363Z" agent="Mozilla/5.0 (Windows NT 10.0; Win64; x64) AppleWebKit/537.36 (KHTML, like Gecko) Chrome/126.0.0.0 Safari/537.36 Edg/126.0.0.0" version="24.6.5" etag="3Pg0WeTJ4LisV4ZA0_WH" type="github">
  <diagram name="Page-1" id="_iCB6-zwNMSsW2dUtN2O">
    <mxGraphModel>
      <root>
        <mxCell id="0" />
        <mxCell id="1" parent="0" />
      </root>
    </mxGraphModel>
  </diagram>
</mxfile>
